<svg width="181" height="45" viewBox="0 0 181 45" fill="none" xmlns="http://www.w3.org/2000/svg">
<path d="M0.558594 10.0684C1.97656 9.59961 3.30664 9.16602 4.54883 8.76758C5.80273 8.36914 7.12109 7.99414 8.50391 7.64258C9.88672 7.2793 11.2109 6.99219 12.4766 6.78125C13.4492 6.61719 14.4453 6.53516 15.4648 6.53516C17.1641 6.53516 18.2773 6.58203 18.8047 6.67578C19.6016 6.82813 20.3516 7.07422 21.0547 7.41406C21.7695 7.75391 22.4023 8.21094 22.9531 8.78516C23.5156 9.34766 23.9727 10.0156 24.3242 10.7891C24.4648 11.1055 24.5352 11.4395 24.5352 11.791C24.5352 13.1035 23.8145 14.7207 22.373 16.6426C20.9434 18.5645 19.502 20.2402 18.0488 21.6699C16.6074 23.0996 15.5293 24.125 14.8145 24.7461L17.9785 35.8379L13.373 39.1602L5.30469 16.1152C5.28125 16.1152 5.16992 16.2266 4.9707 16.4492C4.77148 16.6719 4.50781 16.9648 4.17969 17.3281C3.86328 17.6797 3.66406 17.8965 3.58203 17.9785C3.54688 17.9785 3.42969 17.7266 3.23047 17.2227C3.04297 16.7188 2.78516 16.0215 2.45703 15.1309C2.14062 14.2285 1.7832 13.2324 1.38477 12.1426C0.974609 11.041 0.699219 10.3496 0.558594 10.0684ZM11.9316 14.9551L13.373 20.1406C14.0996 19.4023 15.002 18.3945 16.0801 17.1172C17.1582 15.8398 17.6973 14.9141 17.6973 14.3398C17.6973 14.1172 17.6035 13.9883 17.416 13.9531C16.8887 13.8359 16.3672 13.7773 15.8516 13.7773C14.3047 13.7773 12.998 14.1699 11.9316 14.9551ZM41.6963 18.9629C42.5284 19.4082 43.2022 20.0117 43.7178 20.7734C44.2452 21.5234 44.626 22.373 44.8604 23.3223C45.1065 24.2598 45.2295 25.2383 45.2295 26.2578C45.2295 27.1016 45.1592 27.916 45.0186 28.7012C44.8897 29.4863 44.708 30.207 44.4737 30.8633C44.2393 31.5195 43.9639 32.0762 43.6475 32.5332C42.9092 33.6348 42.1182 34.584 41.2745 35.3809C40.4307 36.1777 39.5694 36.8223 38.6905 37.3145C37.8116 37.7949 36.9385 38.1465 36.0713 38.3691C35.2159 38.6035 34.3662 38.7207 33.5225 38.7207C32.5264 38.7207 31.5772 38.5625 30.6748 38.2461C29.7842 37.9414 29.0225 37.5371 28.3897 37.0332C27.3467 36.166 26.5323 35 25.9463 33.5352C25.3604 32.0586 25.0674 30.5 25.0674 28.8594C25.0674 26.0352 25.8819 23.7559 27.5108 22.0215C28.9053 20.5332 30.3467 19.4141 31.835 18.6641C33.3233 17.9023 34.8467 17.5215 36.4053 17.5215C37.3194 17.5215 38.1983 17.6387 39.042 17.873C39.8858 18.0957 40.7705 18.459 41.6963 18.9629ZM40.6592 21.916C40.46 22.8066 40.0264 23.5918 39.3584 24.2715C38.7022 24.9512 38.0577 25.291 37.4248 25.291C37.1084 25.291 36.8272 25.209 36.5811 25.0449C36.2295 24.7637 36.0537 24.2715 36.0537 23.5684C36.0537 23.0293 36.2295 22.4961 36.5811 21.9688C36.9444 21.4414 37.5127 21.0254 38.2862 20.7207C37.5127 20.7207 36.7627 20.8672 36.0362 21.1602C35.3213 21.4531 34.7061 21.834 34.1905 22.3027C33.6748 22.7598 33.2588 23.2812 32.9424 23.8672C32.6377 24.4414 32.4854 25.0215 32.4854 25.6074C32.4854 26.6973 32.9893 27.5645 33.9971 28.209C34.9346 28.8066 35.8252 29.1055 36.669 29.1055C37.501 29.1055 38.2393 28.8301 38.8838 28.2793C39.5284 27.7168 40.0205 27.002 40.3604 26.1348C40.7002 25.2559 40.8702 24.3887 40.8702 23.5332C40.8702 22.9473 40.7998 22.4082 40.6592 21.916ZM46.2716 8.62695L55.2012 4.88281L56.502 25.1855L63.8497 21.1602L71.4786 22.3027L61.5294 29.9316L70.8985 36.998L71.3204 44.0469L57.504 34.1152L57.9434 42.7461L49.5762 42.9043L47.9942 12.3711L45.4102 12.9512L46.2716 8.62695ZM87.673 28.2793L91.9093 33.3945C91.5695 34.3789 90.7609 35.2812 89.4835 36.1016C88.2179 36.9219 86.7062 37.5664 84.9484 38.0352C83.2023 38.5156 81.4562 38.7559 79.7101 38.7559C78.1632 38.7559 76.7804 38.5508 75.5616 38.1406C74.3546 37.7305 73.423 37.1094 72.7667 36.2773C71.63 34.8477 71.0616 33.0195 71.0616 30.793C71.0616 29.0352 71.378 27.3066 72.0109 25.6074C72.6554 23.8965 73.3351 22.7012 74.0499 22.0215C74.9054 21.2129 75.8312 20.5391 76.8273 20C77.8351 19.4609 78.878 19.0566 79.9562 18.7871C81.0343 18.5176 82.1417 18.3828 83.2784 18.3828C84.7667 18.3828 86.1788 18.623 87.5148 19.1035C88.8624 19.5723 90.0402 20.2578 91.048 21.1602L81.3976 32.6738C82.253 32.6738 83.0616 32.498 83.8234 32.1465C84.5968 31.7832 85.3058 31.2734 85.9503 30.6172C86.5948 29.9492 87.1691 29.1699 87.673 28.2793ZM82.8038 24.1836C82.2296 23.8906 81.6437 23.7441 81.046 23.7441C80.4132 23.7441 79.798 23.873 79.2003 24.1309C78.6144 24.3887 78.1984 24.6934 77.9523 25.0449C77.2257 25.9824 76.8624 27.0137 76.8624 28.1387C76.8624 28.5488 76.9034 28.9414 76.9855 29.3164C77.0675 29.6914 77.2081 30.207 77.4073 30.8633L82.8038 24.1836ZM108.649 17.1172C109.399 17.5977 110.072 18.2656 110.67 19.1211C111.279 19.9648 111.748 20.75 112.076 21.4766C112.404 22.1914 112.621 22.707 112.727 23.0234L106.205 24.4648C106.1 23.8789 105.789 23.4922 105.274 23.3047C104.758 23.1172 104.219 23.0234 103.656 23.0234C100.68 23.3047 99.1916 25.0801 99.1916 28.3496C99.2736 30.9395 100.088 32.3809 101.635 32.6738C102.373 32.6738 103.041 32.4922 103.639 32.1289C104.236 31.7656 104.746 31.2852 105.168 30.6875C105.602 30.0781 105.959 29.3984 106.24 28.6484L112.762 29.9668C112.692 30.2012 112.522 30.6699 112.252 31.373C111.947 32.1582 111.233 33.207 110.108 34.5195C108.994 35.832 107.752 36.752 106.381 37.2793C104.729 37.9238 103.088 38.2461 101.459 38.2461C98.8576 38.2461 96.549 37.3965 94.5334 35.6973C93.6193 34.9004 92.9572 33.9746 92.547 32.9199C92.1252 31.8652 91.9142 30.752 91.9142 29.5801C91.9142 28.3613 92.0841 27.1602 92.424 25.9766C92.7638 24.793 93.1798 23.7148 93.672 22.7422C94.3166 21.4766 95.0255 20.3984 95.799 19.5078C96.5724 18.6055 97.381 17.873 98.2248 17.3105C99.0802 16.7363 99.9533 16.3145 100.844 16.0449C101.735 15.7754 102.631 15.6406 103.533 15.6406C105.385 15.6406 107.09 16.1328 108.649 17.1172ZM127.058 20.791C126.413 20.873 125.775 21.0781 125.142 21.4062C124.521 21.7344 123.988 22.1211 123.542 22.5664C123.097 23.0117 122.745 23.5039 122.488 24.043C122.241 24.5703 122.118 25.0918 122.118 25.6074C122.118 26.6738 122.622 27.541 123.63 28.209C124.521 28.8066 125.423 29.1055 126.337 29.1055C126.513 29.1055 126.753 29.082 127.058 29.0352V25.291C126.741 25.291 126.46 25.209 126.214 25.0449C125.863 24.7637 125.687 24.2246 125.687 23.4277C125.687 22.2793 126.144 21.4004 127.058 20.791ZM127.198 17.6973L134.546 14.3926L134.687 24.2188C134.78 24.8281 134.827 25.5195 134.827 26.293C134.827 26.9727 134.804 27.4766 134.757 27.8047L134.968 38.5801L127.058 39.002V37.9297C125.769 38.457 124.468 38.7207 123.155 38.7207C122.148 38.7207 121.198 38.5684 120.308 38.2637C119.429 37.959 118.667 37.5488 118.023 37.0332C116.98 36.166 116.165 35 115.579 33.5352C114.993 32.0586 114.7 30.5 114.7 28.8594C114.7 26.0352 115.515 23.7559 117.144 22.0215C118.55 20.5449 119.997 19.4258 121.486 18.6641C122.986 17.9023 124.515 17.5215 126.073 17.5215C126.507 17.5215 126.835 17.5332 127.058 17.5566L127.198 17.6973ZM158.088 20.8613L151.883 24.9043C151.578 24.1191 151.168 23.4512 150.653 22.9004C150.149 22.3379 149.627 22.0566 149.088 22.0566C148.315 22.0566 147.664 22.666 147.137 23.8848C146.633 25.0566 146.381 27.1074 146.381 30.0371C146.381 32.0879 146.487 34.502 146.697 37.2793L138.067 38.2812C137.563 34.6602 137.311 31.4316 137.311 28.5957C137.311 28.127 137.334 27.4824 137.381 26.6621L137.065 16.3965L143.973 15.5352L144.975 16.6953C145.795 16.4141 146.551 16.1738 147.242 15.9746C147.946 15.7754 148.602 15.6172 149.211 15.5C149.821 15.3828 150.412 15.3242 150.987 15.3242C152.147 15.3242 153.166 15.5879 154.045 16.1152C155.158 16.7363 156.037 17.3809 156.682 18.0488C157.338 18.7168 157.807 19.6543 158.088 20.8613ZM172.771 20.791C172.126 20.873 171.488 21.0781 170.855 21.4062C170.234 21.7344 169.7 22.1211 169.255 22.5664C168.81 23.0117 168.458 23.5039 168.2 24.043C167.954 24.5703 167.831 25.0918 167.831 25.6074C167.831 26.6738 168.335 27.541 169.343 28.209C170.234 28.8066 171.136 29.1055 172.05 29.1055C172.226 29.1055 172.466 29.082 172.771 29.0352V25.291C172.454 25.291 172.173 25.209 171.927 25.0449C171.575 24.7637 171.4 24.2246 171.4 23.4277C171.4 22.2793 171.857 21.4004 172.771 20.791ZM172.613 3.72266L179.96 0.417969L180.4 24.2188C180.493 24.8281 180.54 25.5195 180.54 26.293C180.54 26.9727 180.517 27.4766 180.47 27.8047L180.681 38.5801L172.771 39.002V37.9297C171.482 38.457 170.181 38.7207 168.868 38.7207C167.861 38.7207 166.911 38.5684 166.021 38.2637C165.142 37.959 164.38 37.5488 163.736 37.0332C162.693 36.166 161.878 35 161.292 33.5352C160.706 32.0586 160.413 30.5 160.413 28.8594C160.413 26.0352 161.228 23.7559 162.857 22.0215C164.263 20.5449 165.71 19.4258 167.199 18.6641C168.699 17.9023 170.228 17.5215 171.786 17.5215C172.22 17.5215 172.548 17.5332 172.771 17.5566L172.613 3.72266Z" fill="black"/>
</svg>
