<svg width="80" height="59" viewBox="0 0 80 59" fill="none" xmlns="http://www.w3.org/2000/svg">
<path d="M0.4375 6.34375C2.95833 5.51042 5.32292 4.73958 7.53125 4.03125C9.76042 3.32292 12.1042 2.65625 14.5625 2.03125C17.0208 1.38542 19.375 0.875 21.625 0.5C23.3542 0.208333 25.125 0.0625 26.9375 0.0625C29.9583 0.0625 31.9375 0.145833 32.875 0.3125C34.2917 0.583333 35.625 1.02083 36.875 1.625C38.1458 2.22917 39.2708 3.04167 40.25 4.0625C41.25 5.0625 42.0625 6.25 42.6875 7.625C42.9375 8.1875 43.0625 8.78125 43.0625 9.40625C43.0625 11.7396 41.7812 14.6146 39.2188 18.0312C36.6771 21.4479 34.1146 24.4271 31.5312 26.9688C28.9688 29.5104 27.0521 31.3333 25.7812 32.4375L31.4062 52.1562L23.2188 58.0625L8.875 17.0938C8.83333 17.0938 8.63542 17.2917 8.28125 17.6875C7.92708 18.0833 7.45833 18.6042 6.875 19.25C6.3125 19.875 5.95833 20.2604 5.8125 20.4062C5.75 20.4062 5.54167 19.9583 5.1875 19.0625C4.85417 18.1667 4.39583 16.9271 3.8125 15.3438C3.25 13.7396 2.61458 11.9688 1.90625 10.0312C1.17708 8.07292 0.6875 6.84375 0.4375 6.34375ZM20.6562 15.0312L23.2188 24.25C24.5104 22.9375 26.1146 21.1458 28.0312 18.875C29.9479 16.6042 30.9062 14.9583 30.9062 13.9375C30.9062 13.5417 30.7396 13.3125 30.4062 13.25C29.4688 13.0417 28.5417 12.9375 27.625 12.9375C24.875 12.9375 22.5521 13.6354 20.6562 15.0312ZM72.29 18.875C73.6233 19.7292 74.8213 20.9167 75.8838 22.4375C76.9671 23.9375 77.8004 25.3333 78.3838 26.625C78.9671 27.8958 79.3525 28.8125 79.54 29.375L67.9463 31.9375C67.7588 30.8958 67.2067 30.2083 66.29 29.875C65.3733 29.5417 64.415 29.375 63.415 29.375C58.1233 29.875 55.4775 33.0312 55.4775 38.8438C55.6233 43.4479 57.0713 46.0104 59.8213 46.5312C61.1338 46.5312 62.3213 46.2083 63.3838 45.5625C64.4463 44.9167 65.3525 44.0625 66.1025 43C66.8733 41.9167 67.5088 40.7083 68.0088 39.375L79.6025 41.7188C79.4775 42.1354 79.1754 42.9688 78.6963 44.2188C78.1546 45.6146 76.8838 47.4792 74.8838 49.8125C72.9046 52.1458 70.6963 53.7812 68.2588 54.7188C65.3213 55.8646 62.4046 56.4375 59.5088 56.4375C54.8838 56.4375 50.7796 54.9271 47.1963 51.9062C45.5713 50.4896 44.3942 48.8438 43.665 46.9688C42.915 45.0938 42.54 43.1146 42.54 41.0312C42.54 38.8646 42.8421 36.7292 43.4463 34.625C44.0504 32.5208 44.79 30.6042 45.665 28.875C46.8108 26.625 48.0713 24.7083 49.4463 23.125C50.8213 21.5208 52.2588 20.2188 53.7588 19.2188C55.2796 18.1979 56.8317 17.4479 58.415 16.9688C59.9983 16.4896 61.5921 16.25 63.1963 16.25C66.4879 16.25 69.5192 17.125 72.29 18.875Z" fill="black"/>
</svg>
